<svg width="16" height="16" viewBox="0 0 16 16" fill="none" xmlns="http://www.w3.org/2000/svg">
<path d="M0.883301 15.3167V2.42777C0.883301 1.53798 1.60462 0.816662 2.49441 0.816662H13.7722C14.662 0.816662 15.3833 1.53798 15.3833 2.42777V10.4833C15.3833 11.3731 14.662 12.0944 13.7722 12.0944H5.71663C5.36793 12.0938 5.02854 12.2069 4.74997 12.4167L0.883301 15.3167ZM2.49441 2.42777V12.0944L4.21347 10.8056C4.4919 10.5956 4.83139 10.4824 5.18013 10.4833H13.7722V2.42777H2.49441ZM7.32775 9.32413L4.34155 6.33713L5.48061 5.19888L7.32775 7.04602L10.786 3.58777L11.9251 4.72683L7.32775 9.32333V9.32413Z" fill="#3C6AF0"/>
</svg>
